<svg xmlns="http://www.w3.org/2000/svg" viewBox="0 0 120 36" fill="none">
  <path fill="#fff" d="M22 19c2-1 3.5-3.4 3.5-6.3 0-4.9-3.8-8.2-9.2-8.2H0v30h14.8c7.4 0 11.3-3.2 11.3-9.4C26.1 20.4 22 19 22 19zm-16-10h9.2c3.4 0 5.1 1.4 5.1 4.1 0 2.7-1.7 4.1-5.1 4.1H6V9zm9.3 18H6v-8.3h9.3c4.4 0 6.4 1.3 6.4 4.8 0 3.5-1.9 4.7-6.4 4.7zM53.5 19c2-1 3.5-3.4 3.5-6.3 0-4.9-3.8-8.2-9.2-8.2H31.5v30h14.8c7.4 0 11.3-3.2 11.3-9.4C57.6 20.4 53.5 19 53.5 19zm-16-10h9.2c3.4 0 5.1 1.4 5.1 4.1 0 2.7-1.7 4.1-5.1 4.1h-9.2V9zm9.3 18h-9.3v-8.3h9.3c4.4 0 6.4 1.3 6.4 4.8 0 3.5-1.9 4.7-6.4 4.7zM86.4 4.8l-10.3 19.6c-.2.4-.9.4-1.1 0L64.7 4.8c-.1-.2-.3-.3-.5-.3h-5c-.3 0-.6.4-.4.7l16.3 30.4c.2.4.8.4 1.1 0L92.5 5.2c.2-.3-.1-.7-.4-.7h-5c-.3 0-.5.1-.7.3zM92.3 31l10.3-19.6c.2-.4.9-.4 1.1 0l10.3 19.6c.1.2.3.3.5.3h5c.3 0 .6-.4.4-.7L103.6.2c-.2-.4-.8-.4-1.1 0L86.2 30.6c-.2.3.1.7.4.7h5c.3 0 .5-.1.7-.3z"/>
</svg>